<svg xmlns="http://www.w3.org/2000/svg" viewBox="0 0 38.14 38.14"><defs><style>.cls-1{fill:#6425d3;}</style></defs><g id="Layer_2" data-name="Layer 2"><g id="Layer_1-2" data-name="Layer 1"><path d="M19.07,0A19.07,19.07,0,0,0,0,19.07,19.07,19.07,0,0,0,19.07,0Z"/><path d="M19.07,38.14A19.07,19.07,0,0,0,38.14,19.07,19.07,19.07,0,0,0,19.07,38.14Z"/><path class="cls-1" d="M19.07,0A19.07,19.07,0,0,1,38.14,19.07,19.07,19.07,0,0,1,19.07,0Z"/><path class="cls-1" d="M19.07,38.14A19.07,19.07,0,0,1,0,19.07,19.07,19.07,0,0,1,19.07,38.14Z"/></g></g></svg>