<svg xmlns="http://www.w3.org/2000/svg" viewBox="0 0 163.71 38.14"><defs><style>.cls-1{fill:#6425d3;}</style></defs><g id="Layer_2" data-name="Layer 2"><g id="Layer_1-2" data-name="Layer 1"><path d="M19.07,0A19.07,19.07,0,0,0,0,19.07,19.07,19.07,0,0,0,19.07,0Z"/><path d="M19.07,38.14A19.07,19.07,0,0,0,38.14,19.07,19.07,19.07,0,0,0,19.07,38.14Z"/><path class="cls-1" d="M19.07,0A19.07,19.07,0,0,1,38.14,19.07,19.07,19.07,0,0,1,19.07,0Z"/><path class="cls-1" d="M19.07,38.14A19.07,19.07,0,0,1,0,19.07,19.07,19.07,0,0,1,19.07,38.14Z"/><path d="M60.91,7.7a11.74,11.74,0,0,1,8.63,3.64,12.11,12.11,0,0,1,3.63,8.88A11.94,11.94,0,0,1,69.59,29a12.34,12.34,0,0,1-17.51-.09,12.24,12.24,0,0,1-3.53-8.77A12.38,12.38,0,0,1,60.91,7.7Zm0,4.42a7.45,7.45,0,0,0-5.53,2.28,8,8,0,0,0-2.24,5.82,7.58,7.58,0,0,0,2.82,6.22,7.75,7.75,0,0,0,5,1.79,7.31,7.31,0,0,0,5.46-2.32,7.91,7.91,0,0,0,2.26-5.72,7.88,7.88,0,0,0-2.28-5.72A7.36,7.36,0,0,0,60.86,12.12ZM77.13,7.7h4.4V32h-4.4Zm26.62,16.81H89.62a4.71,4.71,0,0,0,1.63,3,5.18,5.18,0,0,0,3.4,1.09,5.84,5.84,0,0,0,4.23-1.72l3.71,1.74a8.85,8.85,0,0,1-3.32,2.92,10.5,10.5,0,0,1-4.59.93A9.09,9.09,0,0,1,88,29.86a8.9,8.9,0,0,1-2.6-6.53,9.13,9.13,0,0,1,2.58-6.65A8.69,8.69,0,0,1,94.44,14a9,9,0,0,1,6.73,2.66,9.54,9.54,0,0,1,2.6,7ZM99.33,21a4.4,4.4,0,0,0-1.72-2.38,5,5,0,0,0-3-.92,5.26,5.26,0,0,0-3.23,1A5.84,5.84,0,0,0,89.81,21Zm19.39-4.12L116,19.64A4.65,4.65,0,0,0,113,18a1.84,1.84,0,0,0-1.16.32.91.91,0,0,0-.42.77,1,1,0,0,0,.26.66,4.94,4.94,0,0,0,1.32.81l1.61.81a9.37,9.37,0,0,1,3.5,2.56,5.33,5.33,0,0,1-.77,7,6.56,6.56,0,0,1-4.6,1.56,7.32,7.32,0,0,1-6.12-3l2.71-2.94a6.32,6.32,0,0,0,1.8,1.46,4.07,4.07,0,0,0,1.86.55,2.2,2.2,0,0,0,1.4-.42,1.22,1.22,0,0,0,.53-1q0-1-1.92-2l-1.48-.74c-2.84-1.43-4.25-3.22-4.25-5.37a4.65,4.65,0,0,1,1.59-3.54A5.84,5.84,0,0,1,113,14a7.14,7.14,0,0,1,5.77,2.9Zm5-8.91h4.39v6.46h2.61v3.79H128.1V32h-4.39V18.26h-2.25V14.47h2.25Zm23,6.46h4.38V32h-4.38V30.15a8.93,8.93,0,0,1-2.59,1.77,7.4,7.4,0,0,1-2.81.53,7.8,7.8,0,0,1-5.88-2.63,9.21,9.21,0,0,1-2.48-6.55,9.42,9.42,0,0,1,2.4-6.66A7.65,7.65,0,0,1,141.16,14a7.57,7.57,0,0,1,3,.59,8.32,8.32,0,0,1,2.56,1.79Zm-4.62,3.61a4.47,4.47,0,0,0-3.41,1.45,5.15,5.15,0,0,0-1.35,3.69A5.29,5.29,0,0,0,138.68,27a4.52,4.52,0,0,0,3.4,1.46A4.58,4.58,0,0,0,145.53,27a5.31,5.31,0,0,0,1.37-3.79,5.11,5.11,0,0,0-1.37-3.7A4.59,4.59,0,0,0,142.07,18.08ZM156.71,8h4.38v6.46h2.62v3.79h-2.62V32h-4.38V18.26h-2.25V14.47h2.25Z"/></g></g></svg>